<svg width="27" height="32" viewBox="0 0 27 32" fill="none" xmlns="http://www.w3.org/2000/svg">
<g clip-path="url(#clip0_1_161)">
<path d="M13.6873 8.375C7.26547 8.375 2.06235 13.5781 2.06235 20C2.06235 26.4219 7.26547 31.625 13.6873 31.625C20.1092 31.625 25.3123 26.4219 25.3123 20C25.3123 13.5781 20.1092 8.375 13.6873 8.375ZM20.4373 21.3125C20.4373 21.6219 20.1842 21.875 19.8748 21.875H15.5623V26.1875C15.5623 26.4969 15.3092 26.75 14.9998 26.75H12.3748C12.0655 26.75 11.8123 26.4969 11.8123 26.1875V21.875H7.49985C7.19047 21.875 6.93735 21.6219 6.93735 21.3125V18.6875C6.93735 18.3781 7.19047 18.125 7.49985 18.125H11.8123V13.8125C11.8123 13.5031 12.0655 13.25 12.3748 13.25H14.9998C15.3092 13.25 15.5623 13.5031 15.5623 13.8125V18.125H19.8748C20.1842 18.125 20.4373 18.3781 20.4373 18.6875V21.3125Z" fill="#4F46E5"/>
</g>
<defs>
<clipPath id="clip0_1_161">
<rect width="24" height="24" fill="white" transform="translate(1.68735 8)"/>
</clipPath>
</defs>
</svg>
