<svg width="15" height="14" viewBox="0 0 15 14" fill="none" xmlns="http://www.w3.org/2000/svg">
<g clip-path="url(#clip0_1_61)">
<path d="M14.4528 10.5H5.26532V10.0625C5.26532 9.82187 5.06844 9.625 4.82782 9.625H3.95282C3.71219 9.625 3.51532 9.82187 3.51532 10.0625V10.5H1.32782C1.08719 10.5 0.89032 10.6969 0.89032 10.9375V11.8125C0.89032 12.0531 1.08719 12.25 1.32782 12.25H3.51532V12.6875C3.51532 12.9281 3.71219 13.125 3.95282 13.125H4.82782C5.06844 13.125 5.26532 12.9281 5.26532 12.6875V12.25H14.4528C14.6934 12.25 14.8903 12.0531 14.8903 11.8125V10.9375C14.8903 10.6969 14.6934 10.5 14.4528 10.5ZM14.4528 6.125H12.2653V5.6875C12.2653 5.44688 12.0684 5.25 11.8278 5.25H10.9528C10.7122 5.25 10.5153 5.44688 10.5153 5.6875V6.125H1.32782C1.08719 6.125 0.89032 6.32188 0.89032 6.5625V7.4375C0.89032 7.67812 1.08719 7.875 1.32782 7.875H10.5153V8.3125C10.5153 8.55312 10.7122 8.75 10.9528 8.75H11.8278C12.0684 8.75 12.2653 8.55312 12.2653 8.3125V7.875H14.4528C14.6934 7.875 14.8903 7.67812 14.8903 7.4375V6.5625C14.8903 6.32188 14.6934 6.125 14.4528 6.125ZM14.4528 1.75H8.76532V1.3125C8.76532 1.07187 8.56844 0.875 8.32782 0.875H7.45282C7.21219 0.875 7.01532 1.07187 7.01532 1.3125V1.75H1.32782C1.08719 1.75 0.89032 1.94687 0.89032 2.1875V3.0625C0.89032 3.30312 1.08719 3.5 1.32782 3.5H7.01532V3.9375C7.01532 4.17812 7.21219 4.375 7.45282 4.375H8.32782C8.56844 4.375 8.76532 4.17812 8.76532 3.9375V3.5H14.4528C14.6934 3.5 14.8903 3.30312 14.8903 3.0625V2.1875C14.8903 1.94687 14.6934 1.75 14.4528 1.75Z" fill="#4F46E5"/>
</g>
<defs>
<clipPath id="clip0_1_61">
<rect width="14" height="14" fill="white" transform="translate(0.89032)"/>
</clipPath>
</defs>
</svg>
