<svg width="27" height="32" viewBox="0 0 27 32" fill="none" xmlns="http://www.w3.org/2000/svg">
<g clip-path="url(#clip0_1_225)">
<path d="M13.6444 8.375C7.22256 8.375 2.01944 13.5781 2.01944 20C2.01944 26.4219 7.22256 31.625 13.6444 31.625C20.0663 31.625 25.2694 26.4219 25.2694 20C25.2694 13.5781 20.0663 8.375 13.6444 8.375ZM20.3944 21.3125C20.3944 21.6219 20.1413 21.875 19.8319 21.875H15.5194V26.1875C15.5194 26.4969 15.2663 26.75 14.9569 26.75H12.3319C12.0226 26.75 11.7694 26.4969 11.7694 26.1875V21.875H7.45694C7.14756 21.875 6.89444 21.6219 6.89444 21.3125V18.6875C6.89444 18.3781 7.14756 18.125 7.45694 18.125H11.7694V13.8125C11.7694 13.5031 12.0226 13.25 12.3319 13.25H14.9569C15.2663 13.25 15.5194 13.5031 15.5194 13.8125V18.125H19.8319C20.1413 18.125 20.3944 18.3781 20.3944 18.6875V21.3125Z" fill="#4F46E5"/>
</g>
<defs>
<clipPath id="clip0_1_225">
<rect width="24" height="24" fill="white" transform="translate(1.64444 8)"/>
</clipPath>
</defs>
</svg>
