<svg width="58" height="59" viewBox="0 0 58 59" fill="none" xmlns="http://www.w3.org/2000/svg">
<path d="M0.328125 28.3633C0.328125 12.6987 13.0268 0 28.6914 0C44.356 0 57.0547 12.6987 57.0547 28.3633V30.6367C57.0547 46.3013 44.356 59 28.6914 59C13.0268 59 0.328125 46.3013 0.328125 30.6367V28.3633Z" fill="#DC2626"/>
<g clip-path="url(#clip0_1_242)">
<path d="M38.041 34.1576L33.9518 30.0684C33.7672 29.8838 33.517 29.7812 33.2545 29.7812H32.5859C33.718 28.3334 34.3906 26.5123 34.3906 24.5312C34.3906 19.8186 30.5721 16 25.8594 16C21.1467 16 17.3281 19.8186 17.3281 24.5312C17.3281 29.2439 21.1467 33.0625 25.8594 33.0625C27.8404 33.0625 29.6615 32.3898 31.1094 31.2578V31.9264C31.1094 32.1889 31.2119 32.4391 31.3965 32.6236L35.4857 36.7129C35.8713 37.0984 36.4947 37.0984 36.8762 36.7129L38.0369 35.5521C38.4225 35.1666 38.4225 34.5432 38.041 34.1576ZM25.8594 29.7812C22.9596 29.7812 20.6094 27.4352 20.6094 24.5312C20.6094 21.6314 22.9555 19.2812 25.8594 19.2812C28.7592 19.2812 31.1094 21.6273 31.1094 24.5312C31.1094 27.4311 28.7633 29.7812 25.8594 29.7812Z" fill="white"/>
</g>
<defs>
<clipPath id="clip0_1_242">
<rect width="21" height="21" fill="white" transform="translate(17.3281 16)"/>
</clipPath>
</defs>
</svg>
