<svg width="15" height="14" viewBox="0 0 15 14" fill="none" xmlns="http://www.w3.org/2000/svg">
<g clip-path="url(#clip0_1_128)">
<path d="M13.7406 10.5H4.55313V10.0625C4.55313 9.82187 4.35626 9.625 4.11563 9.625H3.24063C3.00001 9.625 2.80313 9.82187 2.80313 10.0625V10.5H0.615631C0.375006 10.5 0.178131 10.6969 0.178131 10.9375V11.8125C0.178131 12.0531 0.375006 12.25 0.615631 12.25H2.80313V12.6875C2.80313 12.9281 3.00001 13.125 3.24063 13.125H4.11563C4.35626 13.125 4.55313 12.9281 4.55313 12.6875V12.25H13.7406C13.9813 12.25 14.1781 12.0531 14.1781 11.8125V10.9375C14.1781 10.6969 13.9813 10.5 13.7406 10.5ZM13.7406 6.125H11.5531V5.6875C11.5531 5.44688 11.3563 5.25 11.1156 5.25H10.2406C10 5.25 9.80313 5.44688 9.80313 5.6875V6.125H0.615631C0.375006 6.125 0.178131 6.32188 0.178131 6.5625V7.4375C0.178131 7.67812 0.375006 7.875 0.615631 7.875H9.80313V8.3125C9.80313 8.55312 10 8.75 10.2406 8.75H11.1156C11.3563 8.75 11.5531 8.55312 11.5531 8.3125V7.875H13.7406C13.9813 7.875 14.1781 7.67812 14.1781 7.4375V6.5625C14.1781 6.32188 13.9813 6.125 13.7406 6.125ZM13.7406 1.75H8.05313V1.3125C8.05313 1.07187 7.85626 0.875 7.61563 0.875H6.74063C6.50001 0.875 6.30313 1.07187 6.30313 1.3125V1.75H0.615631C0.375006 1.75 0.178131 1.94687 0.178131 2.1875V3.0625C0.178131 3.30312 0.375006 3.5 0.615631 3.5H6.30313V3.9375C6.30313 4.17812 6.50001 4.375 6.74063 4.375H7.61563C7.85626 4.375 8.05313 4.17812 8.05313 3.9375V3.5H13.7406C13.9813 3.5 14.1781 3.30312 14.1781 3.0625V2.1875C14.1781 1.94687 13.9813 1.75 13.7406 1.75Z" fill="#4F46E5"/>
</g>
<defs>
<clipPath id="clip0_1_128">
<rect width="14" height="14" fill="white" transform="translate(0.178131)"/>
</clipPath>
</defs>
</svg>
