<svg width="58" height="59" viewBox="0 0 58 59" fill="none" xmlns="http://www.w3.org/2000/svg">
<path d="M0.9375 28.3633C0.9375 12.6987 13.6362 0 29.3008 0C44.9654 0 57.6641 12.6987 57.6641 28.3633V30.6367C57.6641 46.3013 44.9654 59 29.3008 59C13.6362 59 0.9375 46.3013 0.9375 30.6367V28.3633Z" fill="#2563EB"/>
<g clip-path="url(#clip0_1_281)">
<path d="M38.6492 24.177L37.7211 23.2489C37.3367 22.8645 36.7134 22.8645 36.329 23.2489L36.097 23.4809L31.4566 18.8405L31.6886 18.6085C32.073 18.2241 32.073 17.6008 31.6886 17.2164L30.7605 16.2883C30.3761 15.9039 29.7528 15.9039 29.3684 16.2883L24.264 21.3927C23.8795 21.7772 23.8795 22.4004 24.264 22.7848L25.192 23.7129C25.5765 24.0973 26.1998 24.0973 26.5842 23.7129L26.8162 23.4809L28.4403 25.105L25.1164 28.4289L24.8844 28.1969C24.3718 27.6843 23.5408 27.6843 23.0282 28.1969L18.3219 32.9033C17.8094 33.4159 17.8094 34.2469 18.3219 34.7594L20.1781 36.6156C20.6907 37.1282 21.5217 37.1282 22.0343 36.6156L26.7406 31.9093C27.2532 31.3967 27.2532 30.5657 26.7406 30.0531L26.5086 29.8211L29.8325 26.4972L31.4566 28.1213L31.2246 28.3533C30.8401 28.7378 30.8401 29.361 31.2246 29.7454L32.1526 30.6735C32.5371 31.0579 33.1604 31.0579 33.5448 30.6735L38.6492 25.5691C39.0336 25.1847 39.0336 24.5614 38.6492 24.177Z" fill="white"/>
</g>
<defs>
<clipPath id="clip0_1_281">
<rect width="21" height="21" fill="white" transform="translate(17.9375 16)"/>
</clipPath>
</defs>
</svg>
