<svg width="17" height="16" viewBox="0 0 17 16" fill="none" xmlns="http://www.w3.org/2000/svg">
<g clip-path="url(#clip0_1_217)">
<path d="M10.8049 10.5C10.8049 10.7762 10.5811 11 10.3049 11H7.30487C7.02862 11 6.80487 10.7762 6.80487 10.5V9H0.804871V13.5C0.804871 14.3 1.50487 15 2.30487 15H15.3049C16.1049 15 16.8049 14.3 16.8049 13.5V9H10.8049V10.5ZM15.3049 4H12.8049V2.5C12.8049 1.7 12.1049 1 11.3049 1H6.30487C5.50487 1 4.80487 1.7 4.80487 2.5V4H2.30487C1.50487 4 0.804871 4.7 0.804871 5.5V8H16.8049V5.5C16.8049 4.7 16.1049 4 15.3049 4ZM10.8049 4H6.80487V3H10.8049V4Z" fill="#4F46E5"/>
</g>
<defs>
<clipPath id="clip0_1_217">
<rect width="16" height="16" fill="white" transform="translate(0.804871)"/>
</clipPath>
</defs>
</svg>
