<svg width="58" height="59" viewBox="0 0 58 59" fill="none" xmlns="http://www.w3.org/2000/svg">
<path d="M0.734375 28.3633C0.734375 12.6987 13.433 0 29.0977 0C44.7623 0 57.4609 12.6987 57.4609 28.3633V30.6367C57.4609 46.3013 44.7623 59 29.0977 59C13.433 59 0.734375 46.3013 0.734375 30.6367V28.3633Z" fill="#16A34A"/>
<path d="M34.7928 28.6451L35.773 26.0776C35.9371 25.6469 35.6213 25.1875 35.1578 25.1875H32.7584C33.2096 24.4123 33.4885 23.5223 33.4885 22.5625V22.5502C35.0963 22.2303 36.1135 21.7668 36.1135 21.25C36.1135 20.7045 34.9937 20.2205 33.2383 19.8965C32.8609 18.5512 32.1309 17.1977 31.573 16.5004C31.1834 16.0123 30.5107 15.8606 29.9529 16.1395L28.8209 16.7055C28.4518 16.8901 28.017 16.8901 27.6479 16.7055L26.5158 16.1395C25.958 15.8606 25.2854 16.0123 24.8957 16.5004C24.342 17.1977 23.6078 18.5512 23.2305 19.8965C21.4791 20.2205 20.3594 20.7045 20.3594 21.25C20.3594 21.7668 21.3766 22.2303 22.9844 22.5502V22.5625C22.9844 23.5223 23.2633 24.4123 23.7145 25.1875H21.3561C20.8844 25.1875 20.5686 25.6674 20.7531 26.1022L21.8113 28.5713C20.1666 29.527 19.0469 31.2865 19.0469 33.325V35.1625C19.0469 36.1756 19.8713 37 20.8844 37H35.5844C36.5975 37 37.4219 36.1756 37.4219 35.1625V33.325C37.4219 31.3399 36.3637 29.6172 34.7928 28.6451ZM26.2656 35.6875L24.5594 27.8125L26.5938 29.125L27.5781 30.7656L26.2656 35.6875ZM30.2031 35.6875L28.8906 30.7656L29.875 29.125L31.9094 27.8125L30.2031 35.6875ZM31.9135 23.4443C31.7535 23.9324 31.6264 24.4533 31.2367 24.8143C30.8225 25.1957 29.268 25.733 28.6117 23.7889C28.4969 23.4443 27.9801 23.4443 27.8611 23.7889C27.1639 25.8479 25.5643 25.1178 25.2361 24.8143C24.8465 24.4533 24.7152 23.9324 24.5594 23.4443C24.5266 23.3418 24.301 23.2106 24.301 23.2065V22.7635C25.4617 22.9111 26.8029 23.0014 28.2385 23.0014C29.674 23.0014 31.0152 22.9152 32.176 22.7635V23.2065C32.1719 23.2106 31.9463 23.3377 31.9135 23.4443Z" fill="white"/>
</svg>
