<svg width="58" height="59" viewBox="0 0 58 59" fill="none" xmlns="http://www.w3.org/2000/svg">
<path d="M0.53125 28.3633C0.53125 12.6987 13.2299 0 28.8945 0C44.5591 0 57.2578 12.6987 57.2578 28.3633V30.6367C57.2578 46.3013 44.5591 59 28.8945 59C13.2299 59 0.53125 46.3013 0.53125 30.6367V28.3633Z" fill="#9333EA"/>
<g clip-path="url(#clip0_1_255)">
<path d="M36.7266 35.6875H35.9062V16.9844C35.9062 16.4407 35.4655 16 34.9219 16H21.1406C20.597 16 20.1562 16.4407 20.1562 16.9844V35.6875H19.3359C19.0641 35.6875 18.8438 35.9079 18.8438 36.1797V37H37.2188V36.1797C37.2188 35.9079 36.9984 35.6875 36.7266 35.6875ZM24.0938 19.1172C24.0938 18.8454 24.3141 18.625 24.5859 18.625H26.2266C26.4984 18.625 26.7188 18.8454 26.7188 19.1172V20.7578C26.7188 21.0296 26.4984 21.25 26.2266 21.25H24.5859C24.3141 21.25 24.0938 21.0296 24.0938 20.7578V19.1172ZM24.0938 23.0547C24.0938 22.7829 24.3141 22.5625 24.5859 22.5625H26.2266C26.4984 22.5625 26.7188 22.7829 26.7188 23.0547V24.6953C26.7188 24.9671 26.4984 25.1875 26.2266 25.1875H24.5859C24.3141 25.1875 24.0938 24.9671 24.0938 24.6953V23.0547ZM26.2266 29.125H24.5859C24.3141 29.125 24.0938 28.9046 24.0938 28.6328V26.9922C24.0938 26.7204 24.3141 26.5 24.5859 26.5H26.2266C26.4984 26.5 26.7188 26.7204 26.7188 26.9922V28.6328C26.7188 28.9046 26.4984 29.125 26.2266 29.125ZM29.3438 35.6875H26.7188V32.2422C26.7188 31.9704 26.9391 31.75 27.2109 31.75H28.8516C29.1234 31.75 29.3438 31.9704 29.3438 32.2422V35.6875ZM31.9688 28.6328C31.9688 28.9046 31.7484 29.125 31.4766 29.125H29.8359C29.5641 29.125 29.3438 28.9046 29.3438 28.6328V26.9922C29.3438 26.7204 29.5641 26.5 29.8359 26.5H31.4766C31.7484 26.5 31.9688 26.7204 31.9688 26.9922V28.6328ZM31.9688 24.6953C31.9688 24.9671 31.7484 25.1875 31.4766 25.1875H29.8359C29.5641 25.1875 29.3438 24.9671 29.3438 24.6953V23.0547C29.3438 22.7829 29.5641 22.5625 29.8359 22.5625H31.4766C31.7484 22.5625 31.9688 22.7829 31.9688 23.0547V24.6953ZM31.9688 20.7578C31.9688 21.0296 31.7484 21.25 31.4766 21.25H29.8359C29.5641 21.25 29.3438 21.0296 29.3438 20.7578V19.1172C29.3438 18.8454 29.5641 18.625 29.8359 18.625H31.4766C31.7484 18.625 31.9688 18.8454 31.9688 19.1172V20.7578Z" fill="white"/>
</g>
<defs>
<clipPath id="clip0_1_255">
<rect width="21" height="21" fill="white" transform="translate(17.5312 16)"/>
</clipPath>
</defs>
</svg>
