<svg width="523" height="138" viewBox="0 0 523 138" fill="none" xmlns="http://www.w3.org/2000/svg">
<path d="M3.65899 82.5063L60.9524 92.0711L118.246 133.623L175.539 46.5991L232.833 57.1047L290.126 77.8023L347.419 43.7767L404.713 115.121L462.006 3.47913L519.3 45.9719" stroke="#C7A735"/>
<path d="M3.65899 85.4464C5.08765 85.4464 6.24582 84.1301 6.24582 82.5064C6.24582 80.8827 5.08765 79.5664 3.65899 79.5664C2.23032 79.5664 1.07216 80.8827 1.07216 82.5064C1.07216 84.1301 2.23032 85.4464 3.65899 85.4464Z" fill="white" stroke="#C7A735"/>
<path d="M60.9524 95.0112C62.3811 95.0112 63.5392 93.6949 63.5392 92.0712C63.5392 90.4475 62.3811 89.1312 60.9524 89.1312C59.5237 89.1312 58.3656 90.4475 58.3656 92.0712C58.3656 93.6949 59.5237 95.0112 60.9524 95.0112Z" fill="white" stroke="#C7A735"/>
<path d="M118.246 136.563C119.674 136.563 120.833 135.247 120.833 133.623C120.833 131.999 119.674 130.683 118.246 130.683C116.817 130.683 115.659 131.999 115.659 133.623C115.659 135.247 116.817 136.563 118.246 136.563Z" fill="white" stroke="#C7A735"/>
<path d="M175.539 49.5392C176.968 49.5392 178.126 48.2229 178.126 46.5992C178.126 44.9755 176.968 43.6592 175.539 43.6592C174.111 43.6592 172.952 44.9755 172.952 46.5992C172.952 48.2229 174.111 49.5392 175.539 49.5392Z" fill="white" stroke="#C7A735"/>
<path d="M232.833 60.0448C234.261 60.0448 235.419 58.7285 235.419 57.1048C235.419 55.4811 234.261 54.1648 232.833 54.1648C231.404 54.1648 230.246 55.4811 230.246 57.1048C230.246 58.7285 231.404 60.0448 232.833 60.0448Z" fill="white" stroke="#C7A735"/>
<path d="M290.126 80.7424C291.555 80.7424 292.713 79.4261 292.713 77.8024C292.713 76.1787 291.555 74.8624 290.126 74.8624C288.697 74.8624 287.539 76.1787 287.539 77.8024C287.539 79.4261 288.697 80.7424 290.126 80.7424Z" fill="white" stroke="#C7A735"/>
<path d="M347.419 46.7168C348.848 46.7168 350.006 45.4005 350.006 43.7768C350.006 42.1531 348.848 40.8368 347.419 40.8368C345.991 40.8368 344.833 42.1531 344.833 43.7768C344.833 45.4005 345.991 46.7168 347.419 46.7168Z" fill="white" stroke="#C7A735"/>
<path d="M404.713 118.061C406.142 118.061 407.3 116.745 407.3 115.121C407.3 113.497 406.142 112.181 404.713 112.181C403.284 112.181 402.126 113.497 402.126 115.121C402.126 116.745 403.284 118.061 404.713 118.061Z" fill="white" stroke="#C7A735"/>
<path d="M462.006 6.41918C463.435 6.41918 464.593 5.1029 464.593 3.47918C464.593 1.85547 463.435 0.539185 462.006 0.539185C460.578 0.539185 459.419 1.85547 459.419 3.47918C459.419 5.1029 460.578 6.41918 462.006 6.41918Z" fill="white" stroke="#C7A735"/>
<path d="M519.3 48.912C520.728 48.912 521.887 47.5957 521.887 45.972C521.887 44.3483 520.728 43.032 519.3 43.032C517.871 43.032 516.713 44.3483 516.713 45.972C516.713 47.5957 517.871 48.912 519.3 48.912Z" fill="white" stroke="#C7A735"/>
</svg>
