<svg width="29" height="19" viewBox="0 0 29 19" fill="none" xmlns="http://www.w3.org/2000/svg">
<path d="M27.9706 16.4267L22.5643 12.7273C22.3203 12.5603 21.9895 12.4675 21.6424 12.4675H20.7585C22.2552 11.1577 23.1445 9.5102 23.1445 7.718C23.1445 3.45455 18.096 0 11.8654 0C5.63483 0 0.586365 3.45455 0.586365 7.718C0.586365 11.9814 5.63483 15.436 11.8654 15.436C14.4846 15.436 16.8922 14.8275 18.8064 13.8033V14.4082C18.8064 14.6456 18.942 14.872 19.186 15.039L24.5923 18.7384C25.1021 19.0872 25.9263 19.0872 26.4306 18.7384L27.9652 17.6883C28.4749 17.3395 28.4749 16.7755 27.9706 16.4267ZM11.8654 12.4675C8.03164 12.4675 4.92447 10.3451 4.92447 7.718C4.92447 5.09462 8.02621 2.96846 11.8654 2.96846C15.6992 2.96846 18.8064 5.09091 18.8064 7.718C18.8064 10.3414 15.7047 12.4675 11.8654 12.4675Z" fill="black"/>
</svg>
